<svg xmlns="http://www.w3.org/2000/svg" viewBox="0 0 100 100" fill-rule="evenodd"><g class="t-group-origins"><path d="M11.428 85.878c.002.012.007.023.01.035.02.096.05.189.089.279.013.03.028.058.043.087.037.072.079.139.128.205.02.027.039.054.061.08.058.068.124.13.197.187.015.012.026.028.041.039l.01.005.014.012c.079.055.165.085.25.123.049.022.094.055.145.071.144.046.292.07.44.07h.004c.16 0 .316-.036.467-.088.019-.007.04-.004.06-.011l21.547-8.429c.521-.204.878-.688.92-1.247l.752-10.194c.005-.007.013-.01.018-.017l35.94-51.658a1.452 1.452 0 0 0-.364-2.024L60.793 5.476a1.455 1.455 0 0 0-2.022.364L22.844 57.496c-.009.014-.015.029-.023.042l-8.998 4.288a1.45 1.45 0 0 0-.824 1.209l-1.591 22.481c-.001.01.002.019.002.029-.006.112-.002.223.018.333zM60.327 8.691l9.021 6.27-34.28 49.272-9.008-6.271L60.327 8.691zM24.106 60.144l9.605 6.685-.689 9.341-16.198 6.336 5.595-7.949a1.453 1.453 0 0 0-2.377-1.671l-5.366 7.624 1.163-16.426 8.267-3.94zm70.148 31.594H5.078a1.452 1.452 0 1 0 0 2.906h89.176a1.452 1.452 0 1 0 0-2.906zM73.397 74.239c.728 3.59-.269 5.812-.832 5.928-.214.039-.734-.192-1.358-1.011-.762-.998-1.386-2.501-1.713-4.123a1.391 1.391 0 0 0-.017-.069c-.988-4.712-3.775-7.841-6.474-7.292-2.449.497-3.769 3.785-3.323 7.902a1.45 1.45 0 0 0 .016.425c.879 4.351-.211 7.578-1.316 7.804-.52.107-1.316-.441-2.041-1.392-.963-1.262-1.756-3.142-2.183-5.171l-.011-.057c-1.16-5.75-4.456-9.599-7.675-8.948-3.2.651-4.741 5.478-3.585 11.225a1.453 1.453 0 1 0 2.849-.572c-.875-4.353.213-7.58 1.313-7.804 1.099-.237 3.332 2.28 4.227 6.562l.011.061c.513 2.524 1.487 4.821 2.743 6.468 1.271 1.666 2.74 2.55 4.204 2.55.242 0 .485-.024.727-.073 2.94-.598 4.474-4.713 3.812-9.827a1.425 1.425 0 0 0-.021-.373c-.725-3.595.267-5.815.83-5.93.572-.131 2.346 1.544 3.073 5.134l.015.066c.424 2.024 1.213 3.867 2.229 5.198 1.076 1.411 2.335 2.16 3.604 2.16.215 0 .43-.021.645-.064 2.723-.558 4.054-4.545 3.112-9.289-.002-.008-.001-.016-.002-.024-.38-1.861-.026-3.151.233-3.515.383.229 1.195 1.257 1.58 3.15.009.045.021.089.033.132.31 1.429.874 2.731 1.598 3.683.823 1.083 1.84 1.671 2.856 1.671.174 0 .348-.017.521-.052 2.179-.443 3.229-3.383 2.495-6.989a1.453 1.453 0 1 0-2.848.578c.379 1.866.024 3.156-.234 3.517-.383-.231-1.193-1.262-1.574-3.151a1.902 1.902 0 0 0-.034-.135c-.765-3.512-2.841-5.741-4.987-5.297-2.162.445-3.207 3.354-2.497 6.927-.001.005-.002.011-.001.017z" stroke-width="0" stroke="#ffffff" fill="#ffffff" stroke-width-old="0"></path></g></svg>
